#!OML:ASF E:\Style4\Style4.ASF
:FULLY-SPECIFIED
:DEGREES
701
root 0.269864 17.0849 -1.74128 0.472712 2.88149 3.51282
lowerback 11.2321 4.0045 -0.570039
upperback 7.46349 5.25971 -1.25914
thorax 1.589 2.65399 -1.48628
lowerneck 4.01556 -7.22394 -5.32195
upperneck -6.11935 -9.70225 5.24576
head -2.10679 -4.88225 2.86944
rclavicle 1.25433e-013 -5.64548e-014
rhumerus 67.2469 61.0615 -2.79123
rradius 94.4612
rwrist -4.68492
rhand -19.746 18.3464
rfingers 7.12502
rthumb 6.58499 -11.5313
lclavicle 1.25433e-013 -5.64548e-014
lhumerus -1.11246 -57.1774 47.7959
lradius 115.97
lwrist 10.8429
lhand -30.4164 21.4975
lfingers 7.12502
lthumb -3.71961 51.4448
rfemur -23.708 -1.16866 13.6549
rtibia 49.5474
rfoot -23.6635 -14.0708
rtoes -15.1607
lfemur -22.8403 -0.134935 -23.3909
ltibia 46.2041
lfoot -22.7263 3.61046
ltoes -14.891
702
root 0.270243 17.0852 -1.74328 0.38036 2.98947 3.5101
lowerback 11.1593 3.97131 -0.569459
upperback 7.41732 5.21748 -1.32464
thorax 1.58505 2.63445 -1.54664
lowerneck 3.9216 -7.21753 -5.37888
upperneck -5.91444 -9.68681 5.41248
head -2.01234 -4.87868 2.92014
rclavicle 9.93923e-015 -1.59028e-015
rhumerus 65.9445 59.3275 -3.51267
rradius 95.0835
rwrist -3.8846
rhand -18.9935 18.411
rfingers 7.12502
rthumb 7.31144 -11.4427
lclavicle 9.93923e-015 -1.59028e-015
lhumerus 2.54014 -56.5673 44.5347
lradius 115.883
lwrist 8.94218
lhand -30.6794 21.4239
lfingers 7.12502
lthumb -3.97358 51.3665
rfemur -23.5582 -1.27752 13.6481
rtibia 49.5103
rfoot -23.6468 -14.0763
rtoes -15.1767
lfemur -22.7445 -0.274545 -23.3969
ltibia 46.1898
lfoot -22.7356 3.6031
ltoes -14.7246
703
root 0.269175 17.0851 -1.74721 0.317338 3.08848 3.53917
lowerback 11.1441 3.94718 -0.561234
upperback 7.32663 5.18596 -1.46823
thorax 1.51176 2.62207 -1.69911
lowerneck 3.75176 -7.24252 -5.20019
upperneck -5.6464 -9.70282 5.48089
head -1.89735 -4.8921 2.89123
rclavicle -8.04084e-014 4.59193e-014
rhumerus 64.4664 57.5398 -4.49296
rradius 95.5974
rwrist -3.08748
rhand -18.5895 18.6531
rfingers 7.12502
rthumb 7.70141 -11.1866
lclavicle -8.04084e-014 4.59193e-014
lhumerus 6.25367 -55.8723 41.1401
lradius 115.895
lwrist 7.32767
lhand -30.89 20.2022
lfingers 7.12502
lthumb -4.1769 50.141
rfemur -23.4412 -1.38027 13.6118
rtibia 49.4484
rfoot -23.6358 -14.0384
rtoes -15.132
lfemur -22.6703 -0.367062 -23.4346
ltibia 46.1599
lfoot -22.758 3.72788
ltoes -15.2691
704
root 0.267923 17.0866 -1.74998 0.232559 3.13831 3.45213
lowerback 11.1274 3.89529 -0.503484
upperback 7.24428 5.12168 -1.54844
thorax 1.4451 2.59326 -1.81007
lowerneck 3.57455 -7.23578 -5.17894
upperneck -5.33387 -9.68367 5.62726
head -1.75811 -4.8864 2.913
rclavicle 1.74931e-014 -1.8487e-014
rhumerus 63.282 55.7263 -5.22175
rradius 96.027
rwrist -2.20491
rhand -18.2755 19.1817
rfingers 7.12502
rthumb 8.00441 -10.6467
lclavicle 1.74931e-014 -1.8487e-014
lhumerus 9.76347 -54.9144 37.9603
lradius 115.892
lwrist 5.89424
lhand -31.2808 18.731
lfingers 7.12502
lthumb -4.55424 48.6621
rfemur -23.2998 -1.40153 13.7164
rtibia 49.344
rfoot -23.6017 -14.0424
rtoes -15.1591
lfemur -22.5783 -0.433526 -23.3329
ltibia 46.1212
lfoot -22.7304 3.83743
ltoes -15.6215
705
root 0.267624 17.0896 -1.74952 0.100574 3.16936 3.39634
lowerback 11.1201 3.85652 -0.565801
upperback 7.17926 5.06395 -1.54734
thorax 1.37334 2.56161 -1.77147
lowerneck 3.45335 -7.21999 -5.31773
upperneck -5.00145 -9.66532 5.7712
head -1.61569 -4.87803 2.96455
rclavicle 4.07012e-014 -2.96189e-014
rhumerus 62.2659 53.9235 -5.71043
rradius 96.4493
rwrist -1.37234
rhand -17.8594 19.7882
rfingers 7.12502
rthumb 8.40602 -10.0245
lclavicle 4.07012e-014 -2.96189e-014
lhumerus 12.9833 -53.7312 35.2387
lradius 115.796
lwrist 4.3354
lhand -31.9296 18.1501
lfingers 7.12502
lthumb -5.18075 48.0667
rfemur -23.1228 -1.39014 13.7761
rtibia 49.2127
rfoot -23.4515 -14.2032
rtoes -15.7288
lfemur -22.4046 -0.498705 -23.2718
ltibia 46.0674
lfoot -22.7186 3.80752
ltoes -15.406
706
root 0.267375 17.0942 -1.74914 -0.0023671 3.20572 3.36805
lowerback 11.1333 3.82361 -0.750896
upperback 7.07252 5.00144 -1.4942
thorax 1.23132 2.52194 -1.61423
lowerneck 3.26541 -7.20456 -5.44451
upperneck -4.55298 -9.6512 5.8131
head -1.42949 -4.86876 2.97288
rclavicle -1.30204e-014 -1.55052e-014
rhumerus 61.3439 52.1949 -6.03624
rradius 96.8529
rwrist -0.390741
rhand -17.4717 20.1312
rfingers 7.12502
rthumb 8.7802 -9.66616
lclavicle -1.30204e-014 -1.55052e-014
lhumerus 15.8044 -52.4221 33.028
lradius 115.63
lwrist 2.44893
lhand -32.5293 18.3452
lfingers 7.12502
lthumb -5.75974 48.2469
rfemur -22.9689 -1.40634 13.8058
rtibia 49.0806
rfoot -23.298 -14.3429
rtoes -16.0668
lfemur -22.2468 -0.584896 -23.2363
ltibia 46.0018
lfoot -22.7291 3.74195
ltoes -14.8983
